<svg width="54" height="55" viewBox="0 0 54 55" fill="none" xmlns="http://www.w3.org/2000/svg">
<path d="M53 29C53 42.8071 41.8071 54 28 54C14.1929 54 3 42.8071 3 29C3 15.1929 14.1929 4 28 4C41.8071 4 53 15.1929 53 29ZM5.43702 29C5.43702 41.4612 15.5388 51.563 28 51.563C40.4612 51.563 50.563 41.4612 50.563 29C50.563 16.5388 40.4612 6.43702 28 6.43702C15.5388 6.43702 5.43702 16.5388 5.43702 29Z" fill="black"/>
<circle cx="8" cy="38" r="7" fill="black" stroke="white" stroke-width="2"/>
<circle cx="40.5" cy="49.5" r="4.5" fill="black" stroke="white" stroke-width="2"/>
<circle cx="42.5" cy="11.5" r="10.5" fill="black" stroke="white" stroke-width="2"/>
</svg>
