<svg width="175" height="55" viewBox="0 0 175 55" fill="none" xmlns="http://www.w3.org/2000/svg">
<path d="M53 29C53 42.8071 41.8071 54 28 54C14.1929 54 3 42.8071 3 29C3 15.1929 14.1929 4 28 4C41.8071 4 53 15.1929 53 29ZM5.43702 29C5.43702 41.4612 15.5388 51.563 28 51.563C40.4612 51.563 50.563 41.4612 50.563 29C50.563 16.5388 40.4612 6.43702 28 6.43702C15.5388 6.43702 5.43702 16.5388 5.43702 29Z" fill="white"/>
<circle cx="8" cy="38" r="7" fill="white" stroke="white" stroke-width="2"/>
<circle cx="40.5" cy="49.5" r="4.5" fill="white" stroke="white" stroke-width="2"/>
<circle cx="42.5" cy="11.5" r="10.5" fill="white" stroke="white" stroke-width="2"/>
<path d="M73.232 19.4H77.166L84.292 39H80.666L79.406 35.528H71.006L69.746 39H66.12L73.232 19.4ZM72.252 32.112H78.146L75.192 24.034L72.252 32.112ZM86.6409 39V18H90.0569V39H86.6409ZM93.4222 39V18H96.8382V39H93.4222ZM109.275 39.364C107.913 39.364 106.643 39.098 105.467 38.566C104.301 38.034 103.283 37.3013 102.415 36.368C101.547 35.4253 100.866 34.3427 100.371 33.12C99.8861 31.888 99.6434 30.572 99.6434 29.172C99.6434 27.6973 99.9048 26.344 100.427 25.112C100.959 23.88 101.683 22.8113 102.597 21.906C103.512 21.0007 104.548 20.3007 105.705 19.806C106.872 19.3113 108.085 19.064 109.345 19.064C110.755 19.064 112.122 19.3953 113.447 20.058C114.782 20.7113 115.958 21.724 116.975 23.096L113.923 24.734C113.298 23.9687 112.579 23.3993 111.767 23.026C110.965 22.6433 110.143 22.452 109.303 22.452C108.482 22.452 107.693 22.62 106.937 22.956C106.191 23.292 105.523 23.768 104.935 24.384C104.357 24.9907 103.899 25.7093 103.563 26.54C103.227 27.3613 103.059 28.262 103.059 29.242C103.059 30.166 103.223 31.0387 103.549 31.86C103.876 32.672 104.324 33.386 104.893 34.002C105.472 34.6087 106.139 35.0847 106.895 35.43C107.651 35.7753 108.463 35.948 109.331 35.948C109.91 35.948 110.475 35.8593 111.025 35.682C111.585 35.4953 112.108 35.2293 112.593 34.884C113.088 34.5387 113.527 34.1187 113.909 33.624C114.301 33.1293 114.628 32.5693 114.889 31.944H111.319V28.962H118.907C118.945 30.39 118.721 31.7293 118.235 32.98C117.75 34.2307 117.064 35.3367 116.177 36.298C115.291 37.2593 114.259 38.0107 113.083 38.552C111.907 39.0933 110.638 39.364 109.275 39.364ZM121.477 39V18H124.893V39H121.477ZM134.199 39.364C132.911 39.364 131.735 39.0327 130.671 38.37C129.617 37.7073 128.772 36.8207 128.137 35.71C127.512 34.59 127.199 33.3533 127.199 32C127.199 30.9733 127.381 30.0167 127.745 29.13C128.109 28.234 128.609 27.45 129.243 26.778C129.887 26.0967 130.634 25.5647 131.483 25.182C132.333 24.7993 133.238 24.608 134.199 24.608C135.487 24.608 136.659 24.9393 137.713 25.602C138.777 26.2647 139.622 27.156 140.247 28.276C140.882 29.396 141.199 30.6373 141.199 32C141.199 33.0173 141.017 33.9693 140.653 34.856C140.289 35.7427 139.785 36.5267 139.141 37.208C138.507 37.88 137.765 38.4073 136.915 38.79C136.075 39.1727 135.17 39.364 134.199 39.364ZM134.199 35.948C134.881 35.948 135.492 35.766 136.033 35.402C136.575 35.038 136.999 34.5573 137.307 33.96C137.625 33.3627 137.783 32.7093 137.783 32C137.783 31.272 137.62 30.6093 137.293 30.012C136.976 29.4053 136.542 28.9247 135.991 28.57C135.45 28.206 134.853 28.024 134.199 28.024C133.527 28.024 132.921 28.206 132.379 28.57C131.838 28.934 131.409 29.4193 131.091 30.026C130.774 30.6327 130.615 31.2907 130.615 32C130.615 32.7373 130.779 33.4047 131.105 34.002C131.432 34.5993 131.866 35.0753 132.407 35.43C132.958 35.7753 133.555 35.948 134.199 35.948ZM150.608 24.608C151.971 24.608 153.212 24.9393 154.332 25.602C155.452 26.2647 156.344 27.156 157.006 28.276C157.669 29.3867 158 30.6187 158 31.972C158 32.9893 157.809 33.946 157.426 34.842C157.044 35.738 156.512 36.5267 155.83 37.208C155.158 37.88 154.374 38.4073 153.478 38.79C152.592 39.1727 151.635 39.364 150.608 39.364C149.731 39.364 148.952 39.168 148.27 38.776C147.598 38.3747 147.034 37.8567 146.576 37.222V39H143.16V18H146.576V26.75C147.034 26.1153 147.598 25.602 148.27 25.21C148.952 24.8087 149.731 24.608 150.608 24.608ZM150.566 36.06C151.294 36.06 151.952 35.878 152.54 35.514C153.138 35.1407 153.614 34.646 153.968 34.03C154.323 33.414 154.5 32.728 154.5 31.972C154.5 31.2253 154.323 30.544 153.968 29.928C153.614 29.3027 153.138 28.808 152.54 28.444C151.943 28.08 151.285 27.898 150.566 27.898C149.857 27.898 149.222 28.0847 148.662 28.458C148.102 28.822 147.664 29.3167 147.346 29.942C147.029 30.558 146.87 31.2347 146.87 31.972C146.87 32.728 147.029 33.4187 147.346 34.044C147.664 34.66 148.102 35.15 148.662 35.514C149.222 35.878 149.857 36.06 150.566 36.06ZM166.41 39.364C165.122 39.364 163.946 39.0327 162.882 38.37C161.828 37.7073 160.983 36.816 160.348 35.696C159.723 34.576 159.41 33.3393 159.41 31.986C159.41 30.9687 159.592 30.0167 159.956 29.13C160.32 28.234 160.82 27.45 161.454 26.778C162.098 26.0967 162.845 25.5647 163.694 25.182C164.544 24.7993 165.449 24.608 166.41 24.608C167.502 24.608 168.501 24.8413 169.406 25.308C170.321 25.7653 171.096 26.3953 171.73 27.198C172.365 28.0007 172.827 28.9153 173.116 29.942C173.406 30.9687 173.471 32.042 173.312 33.162H163.078C163.209 33.6847 163.424 34.156 163.722 34.576C164.021 34.9867 164.399 35.318 164.856 35.57C165.314 35.8127 165.832 35.9387 166.41 35.948C167.008 35.9573 167.549 35.8173 168.034 35.528C168.529 35.2293 168.94 34.828 169.266 34.324L172.752 35.136C172.183 36.3773 171.334 37.3947 170.204 38.188C169.075 38.972 167.81 39.364 166.41 39.364ZM162.966 30.6H169.854C169.752 30.04 169.532 29.536 169.196 29.088C168.87 28.6307 168.464 28.2667 167.978 27.996C167.493 27.7253 166.97 27.59 166.41 27.59C165.85 27.59 165.332 27.7253 164.856 27.996C164.38 28.2573 163.974 28.6167 163.638 29.074C163.312 29.522 163.088 30.0307 162.966 30.6Z" fill="white"/>
</svg>
