<svg width="972" height="992" viewBox="0 0 972 992" fill="none" xmlns="http://www.w3.org/2000/svg">
<path d="M863.326 352.598L871.952 358.787H879.995V343.304L905.355 340.845L929.442 358.787H969.034L971.816 356.242C967.879 342.959 963.397 329.844 958.381 316.93L932.547 317.362L919.587 303.129L917.086 280.25L903.802 287.495L896.686 315.464L877.515 295.064L876.739 275.786L858.237 259.85L851.423 253.057H829.966L836.716 272.185L862.55 286.589L867.035 291.355L861.428 294.159L861.687 309.318L849.094 314.58L838.355 312.229L831.627 302.72L849.115 303.647L853.838 297.285L815.13 271.171L812.154 260.044L796.434 274.276L780.498 270.998L756.238 302.547L751.451 314.903L735.924 316.305L712.958 316.456L699.222 310.03L695.168 282.751L700.106 269.748L723.482 264.637L748.971 269.748L752.098 255.645L741.272 253.079L744.96 231.105L770.621 227.094L788.563 201.756L807.086 198.65L823.799 201.13H829.966L826.559 177.323L806.245 185.518L799.086 167.727L787.291 166.088L785.069 153.904L794.687 143.424L817.567 134.453L823.454 123.93C736.011 46.9025 621.397 0.000175021 495.979 0.000175021C391.223 -0.0880531 289.16 33.1827 204.581 94.9908L229.595 94.7967L240.744 100.964L261.747 105.493L263.386 113.752L296.789 114.981L292.261 104.263L262.588 103.422L269.575 96.8454L267.139 88.996H240.313L269.575 67.1513H297.609L310.785 85.3085L332.651 86.5376L345.827 73.75L355.725 78.6882L337.567 96.4141C337.567 96.4141 312.445 96.8669 313.674 96.8669C314.903 96.8669 315.744 114.161 315.744 114.161L346.215 113.32L349.514 105.104L370.518 103.854L372.998 91.4974L360.641 89.4057L364.76 78.2785L374.227 75.4105L407.199 77.0493L389.02 93.546L391.953 106.312L410.908 109.202L409.678 86.1279L427.814 76.6396L459.966 72.9306L506.524 93.546V111.272L521.36 114.981L513.92 128.998H492.895L486.663 145.063L438.682 133.742L476.441 113.622L462.058 101.395L429.496 105.514L426.65 108.469L426.542 108.425L426.046 109.115L416.665 118.862L401.161 120.135L402.39 127.855L407.802 130.097L407.587 132.642L394.972 134.432L394.044 141.742L381.99 142.368L379.812 127.833L358.183 134.41L313.976 160.287L318.936 178.509L331.292 186.574L356.005 189.981V218.08L367.434 216.247L377.957 194.294L404.244 185.971V152.266L418.865 141.225L454.209 149.57L451.729 171.846H461.217L487.202 159.08L488.453 188.321L507.365 199.858L506.567 217.196L488.453 223.363L489.682 229.099L511.526 239.04L511.074 250.987L504.755 251.526C504.744 251.416 504.722 251.308 504.691 251.202L477.131 242.706L475.967 233.865H475.945L484.01 228.323V220.258L475.342 218.08L473.185 225.519L457.982 227.87L456.473 227.374V228.129L451.211 228.927L446.92 220.258L441.96 218.08H431.135L426.218 222.134V231.105L435.469 234.188L444.613 235.482L442.564 236.388L434.219 245.639L430.553 241.024L422.488 238.889L400.514 259.548L403.382 261.898L370.949 279.861L340.436 311.604L338.344 325.729L307.766 345.827L292.606 361.072L294.288 391.564L273.263 381.774L273.414 363.941L214.91 363.962L184.612 379.294L171.458 403.554L166.239 422.789L174.757 441.443L198.629 444.354L236.56 418.994L239.881 431.566L228.301 453.432L257.176 458.371L260.065 502.965L299.636 509.693L324.78 480.625L355.293 486.835L366.011 501.736L395.273 500.011L396.093 491.364L412.18 499.17L430.315 527.592L461.627 528.023L473.185 548.25L474.824 572.963L509.456 586.139L553.146 586.592L565.933 607.574L585.298 613.784L581.589 631.143L560.37 658.099L554.181 717.81L535.01 732.948L506.588 732.107L497.122 748.583L504.152 779.549L473.207 819.098L463.33 837.255L433.852 851.401L414.466 854.355L413.668 862.571L427.275 866.474L425.636 875.337L413.452 887.068L420.849 896.406L435.512 896.815L434.693 908.115L430.79 919.264L429.539 928.321L451.233 946.586L448.343 956.074L418.822 955.513L389.451 929.895L366.571 889.678L369.763 850.862L352.447 827.767L359.455 788.627L349.169 785.759V700.839C349.169 700.839 320.316 678.973 318.656 678.973C316.995 678.973 303.388 675.264 303.388 675.264L300.498 659.22L262.998 612.21L266.707 595.325L267.936 567.701L293.9 549.544L290.191 518.621L252.281 515.775L222.608 481.962L201.583 476.139L187.998 473.638L189.637 461.282L172.32 458.823V465.832L129.019 455.028L111.595 428.375L118.69 415.458L91.2818 375.456L86.5808 346.193H75.4536L79.1411 374.615L98.0961 403.878L96.026 415.436L79.9606 412.956L60.1861 379.251V340.026L39.5707 330.128V301.9C13.3966 363.26 -0.0646991 429.291 0.000233794 496C0.000233794 769.5 222.5 992 496 992C651.047 992 789.663 920.45 880.685 808.661H864.318V775.689L845.385 750.2V710.543L830.937 696.138L829.664 679.642L848.037 644.6L813.254 583.163L817.329 541.479L786.018 538.245L774.481 526.708H753.435L742.739 536.584H705.627L704.376 539.883H683.739L636.384 485.908L636.772 443.858L644.6 440.99L647.511 424.903H636.384L631.834 408.018L686.628 368.469V340.435L713.454 325.535L724.323 326.613H746.383L763.656 317.34L819.313 313.006V341.449L863.326 352.598ZM724.193 175.749L728.722 168.762L745.024 165.463L749.1 185.259L757.769 199.254L763.527 205.874L774.028 209.972L764.13 221.746L744.96 223.579H730.555L732.172 206.478L744.162 203.998L743.148 195.955L731.978 188.946L724.172 183.598L724.193 175.749ZM697.432 206.672L707.33 190.801L720.678 187.696L730.167 191.814L729.304 202.532L708.904 216.958H697.389V206.672H697.432ZM427.943 267.678L417.614 268.54L418.175 261.359L422.789 255.602L429 260.475L427.943 267.678ZM464.15 254.998L457.098 255.602L455.675 262.416L450.241 265.801L441.529 266.535C441.227 264.486 441.054 262.933 441.054 262.933H437.669V255.602H451.88L454.812 248.033L460.462 247.925L466.91 249.262L464.15 254.998Z" fill="url(#paint0_linear_139_77)" fill-opacity="0.5"/>
<defs>
<linearGradient id="paint0_linear_139_77" x1="207.5" y1="140.5" x2="894.197" y2="992" gradientUnits="userSpaceOnUse">
<stop stop-color="white"/>
<stop offset="0.881379"/>
</linearGradient>
</defs>
</svg>
