<svg width="24" height="24" viewBox="0 0 24 24" fill="none" xmlns="http://www.w3.org/2000/svg">
<path d="M18 0L6 0C2.64 0 0 2.64 0 6L0 18C0 21.36 2.64 24 6 24H18C21.36 24 24 21.36 24 18V6C24 2.64 21.36 0 18 0ZM21.6 18C21.6 20.04 20.04 21.6 18 21.6H6C3.96 21.6 2.4 20.04 2.4 18V6C2.4 3.96 3.96 2.4 6 2.4H18C20.04 2.4 21.6 3.96 21.6 6V18Z" fill="black"/>
<path d="M12 6C8.64 6 6 8.64 6 12C6 15.36 8.64 18 12 18C15.36 18 18 15.36 18 12C18 8.64 15.36 6 12 6ZM12 15.6C9.96 15.6 8.4 14.04 8.4 12C8.4 9.96 9.96 8.4 12 8.4C14.04 8.4 15.6 9.96 15.6 12C15.6 14.04 14.04 15.6 12 15.6Z" fill="black"/>
<path d="M17.9998 7.19999C18.6625 7.19999 19.1998 6.66273 19.1998 5.99999C19.1998 5.33725 18.6625 4.79999 17.9998 4.79999C17.3371 4.79999 16.7998 5.33725 16.7998 5.99999C16.7998 6.66273 17.3371 7.19999 17.9998 7.19999Z" fill="black"/>
</svg>
